<svg xmlns="http://www.w3.org/2000/svg">

    <symbol id="search" viewBox="0 0 16 16">
        <path d="M14.64,13.36,10.13,8.85A4.94,4.94,0,0,0,11,6a5,5,0,1,0-2.17,4.12l4.51,4.51ZM2.42,6A3.6,3.6,0,1,1,6,9.61,3.6,3.6,0,0,1,2.42,6Z"/>
    </symbol>

    <symbol id="tlg" viewBox="-2 -2 28 28">
        <path d="m12 0c-6.627 0-12 5.373-12 12s5.373 12 12 12 12-5.373 12-12c0-6.627-5.373-12-12-12zm5.894 8.221-1.97 9.28c-.145.658-.537.818-1.084.508l-3-2.21-1.446 1.394c-.14.18-.357.295-.6.295-.002 0-.003 0-.005 0l.213-3.054 5.56-5.022c.24-.213-.054-.334-.373-.121l-6.869 4.326-2.96-.924c-.64-.203-.658-.64.135-.954l11.566-4.458c.538-.196 1.006.128.832.941z"/>
    </symbol>
    <symbol id="wa" viewBox="0 0 24 24">
        <path fill="none" d="M0 0h24v24H0z"/>
        <path d="M2.004 22l1.352-4.968A9.954 9.954 0 0 1 2 12C2 6.477 6.477 2 12 2s10 4.477 10 10-4.477 10-10 10a9.954 9.954 0 0 1-5.03-1.355L2.004 22zM8.391 7.308a.961.961 0 0 0-.371.1 1.293 1.293 0 0 0-.294.228c-.12.113-.188.211-.261.306A2.729 2.729 0 0 0 6.9 9.62c.002.49.13.967.33 1.413.409.902 1.082 1.857 1.971 2.742.214.213.423.427.648.626a9.448 9.448 0 0 0 3.84 2.046l.569.087c.185.01.37-.004.556-.013a1.99 1.99 0 0 0 .833-.231c.166-.088.244-.132.383-.22 0 0 .043-.028.125-.09.135-.1.218-.171.33-.288.083-.086.155-.187.21-.302.078-.163.156-.474.188-.733.024-.198.017-.306.014-.373-.004-.107-.093-.218-.19-.265l-.582-.261s-.87-.379-1.401-.621a.498.498 0 0 0-.177-.041.482.482 0 0 0-.378.127v-.002c-.005 0-.072.057-.795.933a.35.35 0 0 1-.368.13 1.416 1.416 0 0 1-.191-.066c-.124-.052-.167-.072-.252-.109l-.005-.002a6.01 6.01 0 0 1-1.57-1c-.126-.11-.243-.23-.363-.346a6.296 6.296 0 0 1-1.02-1.268l-.059-.095a.923.923 0 0 1-.102-.205c-.038-.147.061-.265.061-.265s.243-.266.356-.41a4.38 4.38 0 0 0 .263-.373c.118-.19.155-.385.093-.536-.28-.684-.57-1.365-.868-2.041-.059-.134-.234-.23-.393-.249-.054-.006-.108-.012-.162-.016a3.385 3.385 0 0 0-.403.004z"/>
    </symbol>





    <symbol id="All" viewBox="10 10 80 80">
        <path d="M73,20H41c-3.3,0-6,2.7-6,6v1c0,0.6,0.4,1,1,1h29c3.3,0,6,2.7,6,6v31c0,0.6,0.4,1,1,1h1c3.3,0,6-2.7,6-6V26
        	C79,22.7,76.3,20,73,20z"/>
        <path d="M59,34H27c-3.3,0-6,2.7-6,6v34c0,3.3,2.7,6,6,6h32c3.3,0,6-2.7,6-6V40C65,36.7,62.3,34,59,34z M35,70
        	c0,1.1-0.9,2-2,2h-2c-1.1,0-2-0.9-2-2v-2c0-1.1,0.9-2,2-2h2c1.1,0,2,0.9,2,2V70z M35,58c0,1.1-0.9,2-2,2h-2c-1.1,0-2-0.9-2-2v-2
        	c0-1.1,0.9-2,2-2h2c1.1,0,2,0.9,2,2V58z M35,46c0,1.1-0.9,2-2,2h-2c-1.1,0-2-0.9-2-2v-2c0-1.1,0.9-2,2-2h2c1.1,0,2,0.9,2,2V46z
        	 M57,70c0,1.1-0.9,2-2,2H41.2c-1.1,0-2-0.9-2-2v-2c0-1.1,0.9-2,2-2H55c1.1,0,2,0.9,2,2V70z M57,58c0,1.1-0.9,2-2,2H41.2
        	c-1.1,0-2-0.9-2-2v-2c0-1.1,0.9-2,2-2H55c1.1,0,2,0.9,2,2V58z M57,46c0,1.1-0.9,2-2,2H41.2c-1.1,0-2-0.9-2-2v-2c0-1.1,0.9-2,2-2H55
        	c1.1,0,2,0.9,2,2V46z"/>
    </symbol>

    <symbol id="Markets" viewBox="0 0 20 20">
        <path d="M6.123 7.25L6.914 2H2.8L1.081 6.5C1.028 6.66 1 6.826 1 7c0 1.104 1.15 2 2.571 2 1.31 0 2.393-.764 2.552-1.75zM10 9c1.42 0 2.571-.896 2.571-2 0-.041-.003-.082-.005-.121L12.057 2H7.943l-.51 4.875c-.002.041-.004.082-.004.125 0 1.104 1.151 2 2.571 2zm5 1.046V14H5v-3.948c-.438.158-.92.248-1.429.248-.195 0-.384-.023-.571-.049V16.6c0 .77.629 1.4 1.398 1.4H15.6c.77 0 1.4-.631 1.4-1.4v-6.348a4.297 4.297 0 0 1-.571.049A4.155 4.155 0 0 1 15 10.046zM18.92 6.5L17.199 2h-4.113l.79 5.242C14.03 8.232 15.113 9 16.429 9 17.849 9 19 8.104 19 7c0-.174-.028-.34-.08-.5z"/>
    </symbol>

    <symbol id="Crypto" viewBox="0 0 24 24">
        <path d="M11.3848 15.2749C12.4961 15.2709 14.9248 15.2622 14.8971 13.7167C14.8696 12.1362 12.5376 12.232 11.3997 12.2788C11.2725 12.284 11.1603 12.2886 11.0678 12.2902L11.1196 15.2769C11.1955 15.2755 11.2848 15.2752 11.3848 15.2749Z" />
        <path d="M11.2672 10.9218C12.1943 10.9208 14.2166 10.9188 14.1925 9.51381C14.1673 8.07687 12.2241 8.1623 11.275 8.20402C11.1683 8.20871 11.0741 8.21285 10.9967 8.21421L11.0439 10.923C11.1077 10.9219 11.1829 10.9218 11.2672 10.9218Z" />
        <path fill-rule="evenodd" clip-rule="evenodd" d="M9.09602 23.641C15.5261 25.2441 22.0379 21.3317 23.6408 14.9031C25.2437 8.4741 21.3313 1.96185 14.9016 0.359098C8.47345 -1.24365 1.96163 2.6691 0.359461 9.09847C-1.24421 15.5267 2.66858 22.0382 9.09602 23.641ZM13.378 6.62195C15.1321 6.74481 16.5287 7.25928 16.7113 8.86344C16.8468 10.0372 16.3673 10.7515 15.5876 11.1658C16.8879 11.4541 17.7128 12.2095 17.5828 13.937C17.422 16.0824 15.8354 16.6849 13.5566 16.8555L13.5954 19.1058L12.2386 19.1296L12.2004 16.9095C11.8488 16.9159 11.4886 16.9193 11.1164 16.9181L11.1553 19.1485L9.79996 19.1719L9.76003 16.9177C9.63316 16.9191 9.50533 16.9199 9.37659 16.9208C9.18324 16.9221 8.98785 16.9234 8.79059 16.9266L7.02486 16.9575L7.26617 15.3326C7.26617 15.3326 8.27012 15.3307 8.25249 15.3156C8.63645 15.3082 8.73331 15.0307 8.75441 14.8573L8.69266 11.3002C8.72587 11.2994 8.75848 11.2989 8.78995 11.2984C8.8056 11.2981 8.82097 11.2978 8.83599 11.2976C8.77983 11.2909 8.73033 11.2902 8.6924 11.2906L8.64796 8.75147C8.59112 8.47708 8.40668 8.16117 7.85709 8.1706C7.87342 8.15186 6.87178 8.18845 6.87178 8.18845L6.84613 6.73946L8.71755 6.70744L8.71785 6.71434C8.99914 6.70925 9.28753 6.69876 9.58119 6.68763L9.54279 4.45939L10.8989 4.43577L10.9368 6.62026C11.299 6.60671 11.6634 6.5933 12.0201 6.58703L11.9822 4.41691L13.339 4.39309L13.378 6.62195Z" />
    </symbol>

    <symbol id="Wallets" viewBox="0 0 846.66 846.66">
        <path class="fil0" d="M529.12 88.28c-78.14,74.28 -156.27,148.56 -234.4,222.85l221.68 -1.03 117.45 -111.66c-34.91,-36.72 -69.82,-73.44 -104.73,-110.16zm169.44 410.85l0 118.46 96.19 0 0 -118.46 -96.19 0zm-41.26 118.46l0 -118.46 -50.35 0 0 118.46 50.35 0zm-52.42 -159.73l73.05 0 36.03 0 0 -105.46c-181.34,0 -363.04,0 -544,0 -27.14,0 -27.14,-41.27 0,-41.27l65.01 0 123.31 -117.23 -242.8 0c-34.92,0 -63.57,28.65 -63.57,63.57l0 445.76c0,34.92 28.65,63.56 63.57,63.56l534.91 0c34.92,0 63.57,-28.64 63.57,-63.56l0 -44.37 -109.08 0c-21.57,0 -39.2,-17.67 -39.2,-39.2l0 -122.6c0,-21.56 17.66,-39.2 39.2,-39.2zm150.34 0l41.59 0c21.61,0 39.21,17.6 39.21,39.2l0 122.6c0,21.6 -17.6,39.2 -39.21,39.2l-41.59 0 0 44.37c0,57.7 -47.13,104.83 -104.83,104.83l-534.91 0c-57.7,0 -104.83,-47.13 -104.83,-104.83l0 -445.76c0,-57.7 47.13,-104.83 104.83,-104.83l286.2 0 113.99 -108.37c8.23,-7.84 21.26,-7.51 29.1,0.72l102.34 107.65 3.28 0c57.7,0 104.83,47.13 104.83,104.83l0 74.29 0 126.1zm-180.16 -146.73l138.9 0 0 -53.66c0,-22.33 -11.84,-42.87 -30.81,-54.39 -0.78,4.07 -2.79,7.93 -6.01,11l-102.08 97.05z"/>
    </symbol>

    <symbol id="Socials" viewBox="0 0 24 24">
 
		<path d="M24,23H0v-2h24V23z M24,19H0v-2h24V19z M24,15h-7v-2h7V15z M24,11h-7V9h7V11z M24,7h-7V5h7V7z M24,3h-7V1h7V3z"/>

		<path d="M15,15H0V1h15V15z M2,13h11V3H2V13z"/>
  
		<polyline points="2.2,13 5,9 8.2,13.5 "/>
 
		<polyline points="6.6,13 10,8 13.9,13.5 "/>
  
		<circle cx="5" cy="6" r="2"/>

    </symbol>

    <symbol id="Video" viewBox="0 -4 24 24">
        <path fill-rule="evenodd" clip-rule="evenodd" d="M18 3.61257L22.6838 2.05132C23.3313 1.83547 24 2.31744 24 3V13C24 13.6826 23.3313 14.1645 22.6838 13.9487L18 12.3874V13C18 14.6569 16.6569 16 15 16H3C1.34315 16 0 14.6569 0 13V3C0 1.34315 1.34315 0 3 0H15C16.6569 0 18 1.34315 18 3V3.61257zM18 5.72076V10.2792L22 11.6126V4.38743L18 5.72076zM16 4.97666V3C16 2.44772 15.5523 2 15 2H3C2.44772 2 2 2.44772 2 3V13C2 13.5523 2.44772 14 3 14H15C15.5523 14 16 13.5523 16 13V11.0233C15.9996 11.0079 15.9996 10.9924 16 10.9769V5.02306C15.9996 5.00756 15.9996 4.99208 16 4.97666z" />
    </symbol>

    <symbol id="Games" viewBox="0 0 17 17">
        <path d="M5.352,6.083 C5.352,6.083 5.021,5.041 3.35,5.041 C1.679,5.041 1.344,7.047 1.344,7.047 L0.008,13.021 C0.008,14.127 0.843,15.026 2.013,15.026 C3.052,15.026 3.872,13.312 4.317,12.124 C4.547,12.267 4.815,12.353 5.104,12.353 C5.877,12.353 6.637,11.638 6.721,10.888 L9.471,10.888 C9.555,11.638 10.055,12.353 10.827,12.353 C11.142,12.353 11.435,12.255 11.677,12.089 C12.114,13.277 12.924,15.027 13.918,15.027 C15.423,15.027 15.924,14.129 15.924,13.022 L14.588,7.048 C14.588,7.048 14.337,5.042 12.582,5.042 C10.827,5.042 10.701,6.084 10.701,6.084 L5.352,6.084 L5.352,6.083 Z" ></path>
        <path d="M9.041,6.459 L8.041,6.459 L8.041,4.307 C8.031,4.3 7.88,3.38 8.441,2.677 C8.811,2.215 9.377,1.981 10.124,1.981 C11.754,1.981 12,1.545 12,0.043 L13,0.043 C13,1.878 12.52,3.014 10.124,3.014 C9.693,3.014 9.387,3.121 9.217,3.332 C8.945,3.667 9.033,4.207 9.033,4.207 L9.041,6.459 L9.041,6.459 Z" ></path>
    </symbol>

    <symbol id="basket" viewBox="0 0 16 16">
        <path d="M15.244,5.084 L13.316,5.084 L12.281,1.447 C12.13,1.13 11.755,1.002 11.443,1.161 L11.372,1.197 C11.061,1.357 10.932,1.743 11.083,2.06 L11.824,5.083 L5.17,5.083 L5.938,2.064 C6.092,1.75 5.965,1.362 5.657,1.199 L5.587,1.163 C5.277,1.001 4.899,1.125 4.745,1.44 L3.672,5.083 L1.782,5.083 C1.382,5.083 1.057,5.385 1.057,5.755 C1.057,5.755 1.381,6.975 1.782,6.975 L2.418,6.975 L2.867,13.652 C2.867,13.652 2.919,14.961 4.98,14.961 L12.001,14.961 C14.146,14.961 14.116,13.625 14.116,13.625 L14.479,6.976 L15.245,6.976 C15.645,6.976 15.97,5.756 15.97,5.756 C15.969,5.386 15.644,5.084 15.244,5.084 L15.244,5.084 Z M4.031,7.031 L2.969,7.031 L2.969,5.969 L4.031,5.969 L4.031,7.031 L4.031,7.031 Z M6.062,12.742 C6.062,13.092 5.811,13.375 5.503,13.375 L5.48,13.375 C5.169,13.375 4.919,13.092 4.919,12.742 L4.919,8.413 C4.919,8.063 5.169,7.781 5.48,7.781 L5.503,7.781 C5.811,7.781 6.062,8.063 6.062,8.413 L6.062,12.742 L6.062,12.742 Z M9.06,12.547 C9.06,12.881 8.823,13.152 8.531,13.152 L8.51,13.152 C8.217,13.152 7.981,12.881 7.981,12.547 L7.981,8.448 C7.981,8.114 8.217,7.844 8.51,7.844 L8.531,7.844 C8.823,7.844 9.06,8.115 9.06,8.448 L9.06,12.547 L9.06,12.547 Z M12.028,12.639 C12.028,12.977 11.783,13.25 11.482,13.25 L11.46,13.25 C11.158,13.25 10.915,12.977 10.915,12.639 L10.915,8.483 C10.915,8.145 11.158,7.872 11.46,7.872 L11.482,7.872 C11.783,7.872 12.028,8.145 12.028,8.483 L12.028,12.639 L12.028,12.639 Z M14.031,7.062 L12.937,7.062 L12.937,5.968 L14.031,5.968 L14.031,7.062 L14.031,7.062 Z" ></path>
    </symbol>
    
    <symbol id="star" viewBox="0 0 24 24">
        <path d="M10.3072 7.21992C10.9493 5.61924 11.2704 4.81889 11.7919 4.70797C11.9291 4.6788 12.0708 4.6788 12.208 4.70797C12.7295 4.81889 13.0506 5.61924 13.6927 7.21992C14.0578 8.1302 14.2404 8.58535 14.582 8.89491C14.6778 8.98174 14.7818 9.05907 14.8926 9.12582C15.2874 9.3638 15.7803 9.40794 16.7661 9.49623C18.4348 9.64568 19.2692 9.7204 19.524 10.1961C19.5768 10.2947 19.6127 10.4014 19.6302 10.5118C19.7146 11.0448 19.1012 11.6028 17.8744 12.719L17.5338 13.0289C16.9602 13.5507 16.6735 13.8116 16.5076 14.1372C16.4081 14.3325 16.3414 14.5429 16.3101 14.7598C16.258 15.1215 16.342 15.5 16.5099 16.257L16.5699 16.5275C16.8711 17.885 17.0217 18.5638 16.8337 18.8974C16.6649 19.1971 16.3538 19.389 16.0102 19.4054C15.6277 19.4236 15.0887 18.9844 14.0107 18.106C13.3005 17.5273 12.9454 17.238 12.5512 17.1249C12.191 17.0216 11.8089 17.0216 11.4487 17.1249C11.0545 17.238 10.6994 17.5273 9.98917 18.106C8.91119 18.9844 8.37221 19.4236 7.98968 19.4054C7.64609 19.389 7.33504 19.1971 7.16617 18.8974C6.97818 18.5638 7.12878 17.885 7.42997 16.5275L7.48998 16.257C7.65794 15.5 7.74191 15.1215 7.6898 14.7598C7.65854 14.5429 7.59182 14.3325 7.49232 14.1372C7.32645 13.8116 7.03968 13.5507 6.46613 13.0289L6.12546 12.719C4.89867 11.6028 4.28527 11.0448 4.36975 10.5118C4.38724 10.4014 4.42312 10.2947 4.47589 10.1961C4.73069 9.7204 5.56507 9.64568 7.23384 9.49623C8.21962 9.40794 8.71251 9.3638 9.10735 9.12582C9.2181 9.05907 9.32211 8.98174 9.41793 8.89491C9.75954 8.58535 9.94211 8.1302 10.3072 7.21992Z" fill="#222222" stroke="#222222" stroke-width="2"/>
    </symbol>

</svg>